# xmcd CD database file
#
# Track frame offsets:
#	150
#	14075
#	29804
#	45583
#	58705
#	74124
#	89522
#	100880
#	113396
#	129515
#	144608
#	158216
#	172557
#	187164
#	205644
#	285075
#	296604
#	312735
#
# Disc length: 4338 seconds
#
# Revision: 0
# Processed by: cddbd v1.5.2PL0 Copyright (c) Steve Scherf et al.
# Submitted via: CDex 1.51
#
DISCID=0c10f012
DTITLE=Gerry Mulligan - Gerry Mulligan In New York
DYEAR=2007
DGENRE=Jazz
TTITLE0=Flying The Coop
TTITLE1=I May Be Wrong
TTITLE2=New York
TTITLE3=Sax Appeal
TTITLE4=Hot Dog
TTITLE5=Why Not
TTITLE6=Leavin' Town
TTITLE7=So What (Hoo Haa)
TTITLE8=Roundhouse
TTITLE9=Ide's Side
TTITLE10=Bweebida Boobida
TTITLE11=Kaper
TTITLE12=Funhouse
TTITLE13=Mulleneum
TTITLE14=Mulligan's Too
TTITLE15=Get Happy
TTITLE16='s Wonderful
TTITLE17=Godchild
EXTD=YEAR: 2007
EXTT0=
EXTT1=
EXTT2=
EXTT3=
EXTT4=
EXTT5=
EXTT6=
EXTT7=
EXTT8=
EXTT9=
EXTT10=
EXTT11=
EXTT12=
EXTT13=
EXTT14=
EXTT15=
EXTT16=
EXTT17=
PLAYORDER=
